<?xml version="1.0" standalone="no"?><!DOCTYPE svg PUBLIC "-//W3C//DTD SVG 1.1//EN" "http://www.w3.org/Graphics/SVG/1.1/DTD/svg11.dtd"><svg width="100%" height="100%" viewBox="0 0 1878 446" version="1.1" xmlns="http://www.w3.org/2000/svg" xmlns:xlink="http://www.w3.org/1999/xlink" xml:space="preserve" style="fill-rule:evenodd;clip-rule:evenodd;stroke-linejoin:round;stroke-miterlimit:1.41421;"><path d="M1341.47,0l-48.975,49.359l-158.007,159.254l-18.831,18.974l25.409,8.307l76.641,25.05l-38.628,118.175l-21.603,66.094l48.975,-49.363l158.006,-159.253l18.828,-18.972l-25.406,-8.306l-76.641,-25.05l38.625,-118.175l21.607,-66.094ZM1304.2,60.972l-43.75,133.844l92.309,30.172l-158.006,159.253l43.75,-133.844l-92.31,-30.172l158.007,-159.253ZM930.754,163.742c-5.522,-4.696 -12.294,-8.259 -20.135,-10.603c-7.772,-2.309 -16.306,-3.484 -25.359,-3.484c-9.053,0 -17.828,1.172 -26.075,3.478c-8.297,2.322 -15.794,5.856 -22.288,10.509c-6.525,4.675 -12.003,10.638 -16.281,17.719c-4.294,7.113 -6.997,15.525 -8.037,25c-1.047,9.516 -0.185,17.966 2.562,25.113c2.75,7.172 6.969,13.206 12.535,17.934c5.537,4.709 12.346,8.156 20.234,10.25c7.756,2.059 16.284,3.106 25.341,3.106c9.043,0 17.787,-1.043 25.981,-3.1c8.284,-2.075 15.794,-5.493 22.303,-10.156c6.522,-4.672 12.003,-10.637 16.278,-17.725c4.294,-7.103 6.997,-15.516 8.041,-24.997c1.043,-9.515 0.181,-17.962 -2.566,-25.115c-2.753,-7.163 -6.972,-13.197 -12.534,-17.929ZM710.865,262.034l-27.256,0l12.191,-110.922l27.256,0l-4.991,45.375c4.885,-3.662 9.882,-7.353 14.982,-11.065l2.171,-1.585c5.563,-4.075 10.538,-7.769 15.016,-11.165c5.119,-3.882 9.356,-7.157 12.728,-9.825c0.975,-0.772 1.763,-1.432 2.46,-2.035l12.737,-9.7l30.284,0l-0.703,6.397l-4.493,3.288c-1.722,1.031 -3.582,2.275 -5.682,3.8l-42.709,31.709l32.119,46.134c1.275,1.85 2.665,3.725 4.118,5.61l7.685,10.903l-0.338,3.081l-29.759,0l-17.031,-23.575l-18.457,-25.994l-18.359,13.416l-3.969,36.153ZM1829.85,262.034l-71.254,0l12.194,-110.919l71.797,0c6.338,0 11.835,0.772 16.319,2.291c4.528,1.537 8.303,3.678 11.231,6.368c2.95,2.732 5.059,5.907 6.256,9.444c1.191,3.491 1.582,7.213 1.16,11.05c-0.344,3.135 -1.197,6.097 -2.547,8.8c-1.313,2.65 -2.925,5.078 -4.794,7.222c-1.85,2.122 -3.856,4.047 -5.969,5.722c-1.153,0.912 -2.315,1.734 -3.481,2.462c1.234,0.738 2.466,1.575 3.672,2.51c2.244,1.74 4.219,3.853 5.866,6.287c1.646,2.444 2.918,5.25 3.781,8.347c0.875,3.156 1.119,6.597 0.725,10.222c-0.456,4.122 -1.672,8.044 -3.619,11.659c-1.956,3.638 -4.806,6.875 -8.462,9.632c-3.629,2.725 -8.238,4.918 -13.713,6.515c-5.425,1.581 -11.871,2.388 -19.162,2.388ZM1732.64,172.996l-71.278,0l-2.247,20.45l49.869,0l-2.406,21.878l-49.872,0l-2.731,24.828l73.468,0l-2.403,21.881l-100.722,0l12.191,-110.919l98.534,0l-2.403,21.882ZM636.669,262.033l-27.256,0l12.194,-110.919l27.256,0l-12.194,110.919ZM429.553,262.033l-25.684,0l-10.628,-26.762l-49.628,0l-16.656,26.762l-25.197,0l63,-110.919l24.247,0l40.546,110.919ZM482.678,262.032l-27.253,0l12.191,-110.918l64.503,0c14.734,0 26.194,2.515 34.062,7.475c8.225,5.193 11.713,14.043 10.366,26.303c-0.509,4.622 -1.847,8.806 -3.972,12.444c-2.094,3.581 -4.731,6.737 -7.834,9.378c-3.085,2.622 -6.454,4.765 -10.013,6.372c-2.694,1.215 -5.447,2.225 -8.203,3l26.369,45.946l-30.366,0l-24.203,-42.815l-30.941,0l-4.706,42.815ZM1027.97,262.032l-22.507,0l-39.678,-110.919l27.875,0l0.45,1.319c13.838,40.941 19.313,56.422 21.456,62.166l0.172,-0.288l4.785,13.6l33.112,-58.99c1.178,-2.041 2.163,-3.716 2.919,-4.957c0.475,-0.775 0.806,-1.459 1.059,-2.093l6.022,-10.757l27.213,0l-62.878,110.919ZM186.866,262.032l-27.256,0l12.193,-110.919l27.257,0l-4.653,42.332l61.293,0l4.653,-42.332l27.257,0l-12.191,110.919l-27.259,0l4.925,-44.759l-61.297,0l-4.922,44.759ZM32.443,153.054l-22.741,26.237l2.838,-26.237l-0.037,0l2.243,-20.398l0.056,-0.524l0.001,0l0,0l123.822,0l-0.75,6.812l-88.219,98.769l58.684,0l21.476,-24.782l-5.097,47.163l-0.157,-0.056l-0.006,0.053l-124.556,0l0.75,-6.809l89.597,-100.228l-57.904,0ZM1454.04,260.093l-21.971,0l-35.663,-127.963l27.7,0l21.216,76.247l2.447,8.9l0.484,0l33.331,-68.6c0.66,-1.34 1.138,-2.394 1.525,-3.309l6.397,-13.238l27.691,0l2.512,9.632c0.113,1.65 0.616,3.946 1.525,6.915l18.491,68.6l0.484,0l33.978,-70.062c0.457,-0.794 0.753,-1.522 1.082,-2.263l6.209,-12.822l26.216,0l-47.429,97.75l-4.759,9.775c-1.259,2.6 -2.356,4.869 -3.303,6.813c-0.038,0.075 -0.05,0.134 -0.084,0.209l-6.51,13.416l-20.656,0l-22.9,-80.025l-3.2,-11.444l-0.484,0l-14.104,28.944l-0.021,0.047l-20.125,41.312c-1.575,3.191 -2.779,5.778 -3.604,7.775l-6.475,13.391ZM918.641,206.361c-0.609,5.525 -2.278,10.488 -4.956,14.75c-2.706,4.319 -6.125,8.028 -10.147,11.031c-4.047,3.019 -8.594,5.382 -13.512,7.013c-9.847,3.259 -20.088,3.253 -29.147,0.016c-4.497,-1.61 -8.472,-3.935 -11.819,-6.922c-3.309,-2.95 -5.863,-6.597 -7.591,-10.844c-1.722,-4.213 -2.287,-9.128 -1.681,-14.619c0.606,-5.519 2.272,-10.478 4.956,-14.75c2.7,-4.309 6.116,-8.022 10.15,-11.034c4.063,-3.025 8.61,-5.388 13.513,-7.006c4.912,-1.635 9.915,-2.463 14.875,-2.463c4.937,0 9.737,0.825 14.272,2.447c4.5,1.609 8.481,3.937 11.812,6.919c3.3,2.943 5.856,6.593 7.594,10.837c1.716,4.219 2.284,9.144 1.681,14.625ZM1828.18,215.324l-37.191,0l-2.731,24.828l40.653,0c6.975,0 11.853,-1.084 14.512,-3.225c2.632,-2.112 4.119,-5.031 4.547,-8.915c0.475,-4.325 -0.615,-7.406 -3.347,-9.419c-2.943,-2.169 -8.471,-3.269 -16.443,-3.269ZM386.007,213.393l-12.735,-34.213l-18.219,34.213l30.954,0ZM529.653,172.995l-36.697,0l-2.678,24.341l36.272,0c14.872,0 22.581,-4.369 23.569,-13.354c0.368,-3.343 -0.841,-5.818 -3.803,-7.781c-3.216,-2.125 -8.825,-3.206 -16.663,-3.206ZM1837.2,172.996l-41.56,0l-2.25,20.447l41.138,0c3.597,0 7.103,-0.759 10.415,-2.259c2.938,-1.332 4.6,-4.081 5.075,-8.419c0.244,-2.194 0.05,-3.906 -0.568,-5.094c-0.657,-1.253 -1.503,-2.215 -2.591,-2.928c-1.112,-0.722 -2.497,-1.194 -4.103,-1.397c-1.828,-0.231 -3.696,-0.35 -5.556,-0.35ZM1138.44,143.38l-10.1,25.994l-18.2,0l1.925,-26.569l6.053,-26.29l26.531,0l-6.209,26.865Z" style="fill:url(#_Linear1);"/><defs><linearGradient id="_Linear1" x1="0" y1="0" x2="1" y2="0" gradientUnits="userSpaceOnUse" gradientTransform="matrix(1877.72,0,0,445.213,0,222.606)"><stop offset="0%" style="stop-color:#00b0e5;stop-opacity:1"/><stop offset="100%" style="stop-color:#00e1ec;stop-opacity:1"/></linearGradient></defs></svg>