<svg xmlns="http://www.w3.org/2000/svg" viewBox="0 0 600.87 142.47"><defs><style>.cls-1{fill:#ff6600;}.cls-2{fill:#00bfff;}</style></defs><title>LOGO</title><g id="Layer_2" data-name="Layer 2"><g id="Layer_1-2" data-name="Layer 1"><path class="cls-1" d="M417.34,19.51l-14,42.83L432.88,72l-50.56,51,14-42.83-29.54-9.66,50.56-51M429.27,0,413.6,15.8,363,66.76l-6,6.07,8.13,2.66,24.52,8-12.36,37.82-6.91,21.15,15.67-15.8,50.56-51,6-6.07L434.52,67,410,59l12.36-37.82L429.27,0Z"/><path class="cls-2" d="M504.08,46.38a7.41,7.41,0,0,1-.35.72L492.87,69.53h-.16l-5.92-22a10.62,10.62,0,0,1-.49-2.21l-.8-3.08h-8.86l-2,4.24c-.12.29-.28.63-.49,1.06l-10.66,22h-.16l-.78-2.85-6.79-24.4h-8.86l11.41,40.95h7l2.07-4.29q.4-1,1.15-2.49L475,63.24h0L479.48,54h.16l1,3.66L488,83.23h6.61l2.08-4.29,0-.07,1.06-2.18,1.52-3.13,15.18-31.28h-8.39Z"/><polygon class="cls-2" points="8.47 42.28 4.74 42.28 4 48.98 7.74 48.98 7.74 48.98 28.91 48.98 0.24 81.05 0 83.23 36.28 83.23 36.28 83.23 39.86 83.23 40.65 76.07 37.06 76.07 28.96 76.07 15.89 76.07 44.12 44.46 44.36 42.28 22.18 42.28 8.47 42.28"/><path class="cls-2" d="M297.84,52.4A17.63,17.63,0,0,0,291.4,49a28.49,28.49,0,0,0-8.11-1.12A31,31,0,0,0,274.94,49a22.68,22.68,0,0,0-7.13,3.36A19,19,0,0,0,262.6,58,19.46,19.46,0,0,0,260,66a17.11,17.11,0,0,0,.82,8,14,14,0,0,0,4,5.74,16.34,16.34,0,0,0,6.48,3.28,31.64,31.64,0,0,0,8.11,1,34.2,34.2,0,0,0,8.31-1,20.91,20.91,0,0,0,7.14-3.25,19,19,0,0,0,5.21-5.67,19.45,19.45,0,0,0,2.57-8,17.14,17.14,0,0,0-.82-8A14,14,0,0,0,297.84,52.4ZM294,66a11.06,11.06,0,0,1-1.59,4.72,13,13,0,0,1-3.25,3.53,15.24,15.24,0,0,1-4.32,2.24,14.34,14.34,0,0,1-9.33,0,11.41,11.41,0,0,1-3.78-2.21,9.28,9.28,0,0,1-2.43-3.47,9.52,9.52,0,0,1-.54-4.68,11.06,11.06,0,0,1,1.59-4.72,13,13,0,0,1,3.25-3.53,15.22,15.22,0,0,1,4.32-2.24,15.06,15.06,0,0,1,4.76-.79,13.52,13.52,0,0,1,4.57.78A11.39,11.39,0,0,1,291,57.89a9.35,9.35,0,0,1,2.43,3.47A9.57,9.57,0,0,1,294,66Z"/><polygon class="cls-2" points="81.82 61.9 62.21 61.9 63.7 48.36 54.98 48.36 51.08 83.85 59.8 83.85 61.37 69.53 80.99 69.53 79.41 83.85 88.13 83.85 92.03 48.36 83.31 48.36 81.82 61.9"/><path class="cls-2" d="M116.72,48.36,96.56,83.85h8.06L110,75.29h15.88l3.4,8.56h8.22l-13-35.49Zm-3.11,19.93,5.83-10.95,4.08,10.95Z"/><path class="cls-2" d="M181.18,50.75c-2.52-1.59-6.18-2.39-10.9-2.39H149.64l-3.9,35.49h8.72L156,70.15h9.9l7.75,13.7h9.72l-8.44-14.7a18.66,18.66,0,0,0,2.63-1,13.58,13.58,0,0,0,3.2-2,11.66,11.66,0,0,0,2.51-3,10,10,0,0,0,1.27-4C184.93,55.24,183.81,52.41,181.18,50.75ZM168.5,63.15H156.89l.86-7.79h11.74c2.51,0,4.3.35,5.33,1A2.44,2.44,0,0,1,176,58.87C175.72,61.75,173.25,63.15,168.5,63.15Z"/><polygon class="cls-2" points="195.01 83.85 203.73 83.85 207.63 48.36 198.91 48.36 195.01 83.85"/><path class="cls-2" d="M244.93,51.46c-.22.19-.48.4-.79.65q-1.62,1.28-4.07,3.14c-1.43,1.09-3,2.27-4.8,3.57l-.69.51q-2.45,1.78-4.79,3.54l1.6-14.52h-8.72l-3.9,35.49h8.72l1.27-11.57L234.62,68l5.91,8.32L246,83.85h9.52l.11-1-2.46-3.49c-.47-.6-.91-1.2-1.32-1.79L241.55,62.82l13.67-10.15c.67-.49,1.27-.89,1.82-1.22l1.44-1.05.22-2H249Z"/><path class="cls-2" d="M338.44,51.8a4.37,4.37,0,0,1-.34.67c-.24.4-.56.93-.93,1.59l-10.6,18.88L325,68.58l-.05.09c-.69-1.84-2.44-6.79-6.87-19.89l-.14-.42h-8.92l12.7,35.49H329l20.12-35.49h-8.71Z"/><path class="cls-2" d="M600.45,54.15a7.3,7.3,0,0,0-2-3,10,10,0,0,0-3.59-2,16.44,16.44,0,0,0-5.22-.73h-23l-3.9,35.49h22.8a22.08,22.08,0,0,0,6.13-.76A13.61,13.61,0,0,0,596.07,81a9.53,9.53,0,0,0,2.71-3.08,10.2,10.2,0,0,0,1.16-3.73,8.71,8.71,0,0,0-.23-3.27,9.18,9.18,0,0,0-1.21-2.67,8.73,8.73,0,0,0-1.88-2,11.88,11.88,0,0,0-1.18-.8,12.23,12.23,0,0,0,1.11-.79,14.49,14.49,0,0,0,1.91-1.83A10.85,10.85,0,0,0,600,60.5a8.3,8.3,0,0,0,.81-2.82A8.12,8.12,0,0,0,600.45,54.15ZM591.35,73a4,4,0,0,1-1.46,2.85c-.85.69-2.41,1-4.64,1h-13l.87-7.94H585c2.55,0,4.32.35,5.26,1A3,3,0,0,1,591.35,73ZM592,58.48a3,3,0,0,1-1.62,2.69,8,8,0,0,1-3.33.72H573.89l.72-6.54h13.3a14.17,14.17,0,0,1,1.78.11,3.11,3.11,0,0,1,1.31.45,2.44,2.44,0,0,1,.83.94A2.91,2.91,0,0,1,592,58.48Z"/><polygon class="cls-2" points="519.78 83.85 552.01 83.85 552.78 76.85 529.27 76.85 530.14 68.9 546.1 68.9 546.87 61.9 530.92 61.9 531.64 55.36 554.44 55.36 555.21 48.36 523.68 48.36 519.78 83.85"/><polygon class="cls-2" points="355.86 45.7 355.24 54.2 361.07 54.2 364.3 45.88 366.29 37.28 357.8 37.28 355.86 45.7"/><polygon class="cls-2" points="4.74 42.28 3.1 57.37 13.5 45.37 4.74 42.28"/><polygon class="cls-2" points="39.91 83.23 41.54 68.14 31.14 80.14 39.91 83.23"/></g></g></svg>